<?xml version="1.0" encoding="UTF-8"?>
<svg id="Camada_2" data-name="Camada 2" xmlns="http://www.w3.org/2000/svg" viewBox="0 0 1317.83 200">
  <defs>
    <style>
      .cls-1 {
        fill: #F5F2EC;
      }
    </style>
  </defs>
  <g id="Camada_1-2" data-name="Camada 1">
    <g>
      <g>
        <path class="cls-1" d="M76.84,92.51v29.94c-6.07,18.08-18.64,27.54-38.56,27.54C11.72,150,0,128.81,0,100s10.87-50,37.43-50c13.98,0,20.34,4.1,24.72,7.34l1.13-.14-.57-5.23,3.25-.42s0,4.38,1.13,12.01c.99,6.64,2.54,12.85,2.54,12.85l-3.25.28c-3.39-13.98-14.69-23.45-28.96-23.45-18.5,0-26.41,17.94-26.41,46.75s8.76,46.61,27.26,46.61c17.09,0,27.68-10.45,27.68-29.52v-20.2h-14.69v-3.25c11.3,0,18.93-1.13,18.93-1.13h6.64Z"/>
        <path class="cls-1" d="M145.2,124.43s-2.54,6.22-4.66,12.99c-2.12,6.64-3.11,11.86-3.11,11.86,0,0-10.73-.56-29.1-.56s-27.12.56-27.12.56v-3.39c5.51,0,10.03.56,10.03-9.46V63.42c0-10.03-4.52-9.6-10.03-9.6v-3.25s8.76.71,22.46.71c14.69,0,29.66-.71,29.66-.71,0,0,1.13,2.83,4.09,7.2,2.4,3.67,6.36,8.76,6.36,8.76l-2.97,1.41c-6.36-9.6-13.7-13.42-26.41-13.42h-12.15v39.12h13.56c7.34,0,9.46-4.8,12.71-12.43l2.97,1.41s-2.68,5.65-6.22,13.98c-2.97,7.2-5.23,14.27-5.23,14.27l-2.97-1.41s1.13-2.82,2.54-6.36c1.7-4.66.85-6.22-4.8-6.22h-12.57v48.45h12.15c17.8,0,22.46-5.23,27.54-21.61l3.25.71Z"/>
        <path class="cls-1" d="M231.08,100c0,28.81-12.01,50-38.7,50s-38.28-21.19-38.28-50,11.72-50,38.28-50,38.7,21.05,38.7,50ZM220.07,100c0-28.81-9.04-46.75-27.68-46.75s-27.26,17.94-27.26,46.75,8.76,46.61,27.26,46.61,27.68-17.8,27.68-46.61Z"/>
        <path class="cls-1" d="M312.02,144.35c-3.39,2.97-6.64,5.65-13,5.65-9.18,0-11.58-9.89-17.23-26.7-7.34-21.75-10.59-26.41-25-26.41v39.97c0,9.46,4.52,9.04,10.03,9.04v3.39s-5.37-.71-15.96-.71-15.11.71-15.11.71v-3.39c5.51,0,10.03.28,10.03-9.04V62.99c0-9.46-4.52-9.18-10.03-9.18v-3.25s7.49.71,15.25.71c10.45,0,16.67-1.27,25.28-1.27,13.84,0,19.07,10.17,19.07,23.3,0,14.69-10.59,21.05-23.3,21.05v1.13c10.31,1.98,15.54,9.89,19.91,23.45,4.52,13.7,7.63,25,14.83,25,2.54,0,4.24-1.55,4.24-1.55l.99,1.98ZM263.86,93.64c9.74,0,20.48-4.66,20.48-19.63v-1.27c0-14.27-7.77-18.08-19.49-18.08h-8.05v38.98h7.06Z"/>
        <path class="cls-1" d="M389.71,92.51v29.94c-6.07,18.08-18.64,27.54-38.56,27.54-26.55,0-38.28-21.19-38.28-50s10.87-50,37.43-50c13.98,0,20.34,4.1,24.72,7.34l1.13-.14-.57-5.23,3.25-.42s0,4.38,1.13,12.01c.99,6.64,2.54,12.85,2.54,12.85l-3.25.28c-3.39-13.98-14.69-23.45-28.96-23.45-18.5,0-26.41,17.94-26.41,46.75s8.76,46.61,27.26,46.61c17.09,0,27.68-10.45,27.68-29.52v-20.2h-14.69v-3.25c11.3,0,18.93-1.13,18.93-1.13h6.64Z"/>
        <path class="cls-1" d="M415.14,136.86c0,9.46,4.52,9.04,10.03,9.04v3.39s-4.94-.71-15.54-.71-15.54.71-15.54.71v-3.39c5.51,0,10.03.42,10.03-9.04V62.99c0-9.46-4.52-9.18-10.03-9.18v-3.25s4.94.71,15.54.71,15.54-.71,15.54-.71v3.25c-5.51,0-10.03-.28-10.03,9.18v73.87Z"/>
        <path class="cls-1" d="M506.67,145.9v3.39s-4.1-.71-15.4-.71c-9.75,0-16.67.71-16.67.71v-3.39c6.5,0,12.01-2.12,9.04-13.84l-8.62-35.17h-20.34l-8.05,32.77c-2.68,10.88,1.55,16.24,9.75,16.24v3.39s-6.36-.71-13.7-.71-13.56.71-13.56.71v-3.39c9.04,0,11.58-6.21,13.84-15.25l15.96-64.69c2.54-10.03-.14-12.15-10.17-12.15v-3.25h6.5c4.8,0,12.43-.56,12.43-.56h6.92l20.76,83.62c2.54,10.17,6.64,12.29,11.3,12.29ZM474.18,93.64l-8.9-35.17h-1.13l-8.62,35.17h18.64Z"/>
      </g>
      <g>
        <path class="cls-1" d="M870.48,145.9v3.39s-4.1-.71-15.4-.71c-9.75,0-16.67.71-16.67.71v-3.39c6.5,0,12.01-2.12,9.04-13.84l-8.62-35.17h-20.34l-8.05,32.77c-2.68,10.88,1.55,16.24,9.75,16.24v3.39s-6.36-.71-13.7-.71-13.56.71-13.56.71v-3.39c9.04,0,11.58-6.21,13.84-15.25l15.96-64.69c2.54-10.03-.14-12.15-10.17-12.15v-3.25h6.5c4.8,0,12.43-.56,12.43-.56h6.92l20.76,83.62c2.54,10.17,6.64,12.29,11.3,12.29ZM837.99,93.64l-8.9-35.17h-1.13l-8.62,35.17h18.64Z"/>
        <path class="cls-1" d="M950,50.56v3.25c-5.51,0-10.03-.28-10.03,9.18v86.3h-9.89l-40.25-84.75h-1.13v72.32c0,9.46,4.38,9.04,10.03,9.04v3.39s-5.37-.71-11.86-.71-11.58.71-11.58.71v-3.39c5.51,0,10.03.42,10.03-9.04V62.99c0-9.46-4.52-9.18-10.03-9.18v-3.25s4.94.71,9.89.71,10.03-.71,10.03-.71c38.7,81.36,40.39,84.75,40.39,84.75h1.13V62.99c0-9.46-4.38-9.18-9.89-9.18v-3.25s5.09.71,11.58.71,11.58-.71,11.58-.71Z"/>
        <path class="cls-1" d="M1018.65,89.69v20.62c0,21.19-4.38,39.69-21.19,39.69-7.34,0-16.81-1.41-26.69-1.41-10.59,0-16.24.71-16.24.71v-3.39c5.51,0,10.03.42,10.03-9.6V63.56c0-10.03-4.52-9.75-10.03-9.75v-3.25s5.65.71,16.24.71c9.89,0,19.35-1.27,26.69-1.27,16.81,0,21.19,18.36,21.19,39.69ZM1007.63,88.98c0-23.87-3.53-34.46-20.76-34.46h-11.3v90.82h11.3c17.23,0,20.76-10.59,20.76-34.46v-21.89Z"/>
        <path class="cls-1" d="M1099.16,144.35c-3.39,2.97-6.64,5.65-13,5.65-9.18,0-11.58-9.89-17.23-26.7-7.34-21.75-10.59-26.41-25-26.41v39.97c0,9.46,4.52,9.04,10.03,9.04v3.39s-5.37-.71-15.96-.71-15.11.71-15.11.71v-3.39c5.51,0,10.03.28,10.03-9.04V62.99c0-9.46-4.52-9.18-10.03-9.18v-3.25s7.49.71,15.25.71c10.45,0,16.67-1.27,25.28-1.27,13.84,0,19.07,10.17,19.07,23.3,0,14.69-10.59,21.05-23.3,21.05v1.13c10.31,1.98,15.54,9.89,19.91,23.45,4.52,13.7,7.63,25,14.83,25,2.54,0,4.24-1.55,4.24-1.55l.99,1.98ZM1051,93.64c9.74,0,20.48-4.66,20.48-19.63v-1.27c0-14.27-7.77-18.08-19.49-18.08h-8.05v38.98h7.06Z"/>
        <path class="cls-1" d="M1180.67,145.9v3.39s-4.1-.71-15.4-.71c-9.75,0-16.67.71-16.67.71v-3.39c6.5,0,12.01-2.12,9.04-13.84l-8.62-35.17h-20.34l-8.05,32.77c-2.68,10.88,1.55,16.24,9.75,16.24v3.39s-6.36-.71-13.7-.71-13.56.71-13.56.71v-3.39c9.04,0,11.58-6.21,13.84-15.25l15.96-64.69c2.54-10.03-.14-12.15-10.17-12.15v-3.25h6.5c4.8,0,12.43-.56,12.43-.56h6.92l20.76,83.62c2.54,10.17,6.64,12.29,11.3,12.29ZM1148.18,93.64l-8.9-35.17h-1.13l-8.62,35.17h18.64Z"/>
        <path class="cls-1" d="M1249.6,89.69v20.62c0,21.19-4.38,39.69-21.19,39.69-7.34,0-16.81-1.41-26.69-1.41-10.59,0-16.24.71-16.24.71v-3.39c5.51,0,10.03.42,10.03-9.6V63.56c0-10.03-4.52-9.75-10.03-9.75v-3.25s5.65.71,16.24.71c9.89,0,19.35-1.27,26.69-1.27,16.81,0,21.19,18.36,21.19,39.69ZM1238.58,88.98c0-23.87-3.53-34.46-20.76-34.46h-11.3v90.82h11.3c17.23,0,20.76-10.59,20.76-34.46v-21.89Z"/>
        <path class="cls-1" d="M1317.83,124.43s-2.54,6.22-4.66,12.99c-2.12,6.64-3.11,11.86-3.11,11.86,0,0-10.73-.56-29.1-.56s-27.12.56-27.12.56v-3.39c5.51,0,10.03.56,10.03-9.46V63.42c0-10.03-4.52-9.6-10.03-9.6v-3.25s8.76.71,22.46.71c14.69,0,29.66-.71,29.66-.71,0,0,1.13,2.83,4.09,7.2,2.4,3.67,6.36,8.76,6.36,8.76l-2.97,1.41c-6.36-9.6-13.7-13.42-26.41-13.42h-12.15v39.12h13.56c7.34,0,9.46-4.8,12.71-12.43l2.97,1.41s-2.68,5.65-6.22,13.98c-2.97,7.2-5.23,14.27-5.23,14.27l-2.97-1.41s1.13-2.82,2.54-6.36c1.7-4.66.85-6.22-4.8-6.22h-12.57v48.45h12.15c17.8,0,22.46-5.23,27.54-21.61l3.25.71Z"/>
      </g>
      <path class="cls-1" d="M719.34,54.4c-1.82-14.01-8.16-27.52-18.39-37.22-20.21-19.82-51.73-22.04-76.13-8.99-20.37,10.84-35.77,31.44-39.09,54.7-1.28,9.65-2.09,24.22-2.99,34.03-.11,2.39-3.21,37.05-2.89,38.29-.17,2.62.12,6.16.35,8.83.04,1.28.46,3.09.66,4.37,5.4,30.84,31.34,51.64,62,51.57,35.22-.29,66.69-28.29,71.44-63.61,1.18-9.64,1.86-24.21,2.71-34,.08-2.29,3.02-37.12,2.71-38.24.26-2.98-.24-6.74-.38-9.75ZM626.63,11.64c14.6-8.06,32.17-10.28,47.96-5.99-2.32-.06-4.68.1-7.08.47-21.15,3.29-39.55,20.19-48.63,29.98-12.48,13.45-22.57,28.67-30.04,45.24.44-6.36.93-12.77,1.55-17.75,2.86-21.86,17.21-41.53,36.25-51.95ZM642.86,195.49c-10.15-.18-20.15-2.66-29-7.69-1.17-.67-3.93-2.53-5.09-3.28-.09-.07-.18-.15-.28-.22,1.09.37,2.2.72,3.33,1,4.02,1.01,8.09,1.51,12.16,1.51,8.47,0,16.97-2.16,25.07-6.44,11.2-5.91,21.56-15.49,30.81-28.48,9.32-13.09,16.46-27.4,21.24-42.51l12.72-2.62c-.74,9.29-1.5,21.1-2.59,29.16-4.85,33.4-35.05,59.74-68.37,59.56ZM698.64,106.69l-34.24,6.48-12.61,1.92c-1.26.19-2.69.15-4.13-.12-.76-.14-1.39-.55-1.77-1.14-.39-.6-.51-1.36-.33-2.14.35-1.56,1.13-3.1,2.36-4.71,6.33-8.24,13.68-15.36,23.11-22.43,6.8-5.09,14.15-9.15,19.68-10.87,1.24-.39,3.23-.88,5.24-.88,2.67,0,5.37.88,6.4,4.07.65,2.03.82,4.07.88,6.5-.26,5.96-1.09,11.3-2.55,16.3l-2.04,7.03ZM717,64.09c.24.96-2.62,35.91-2.79,38.07-.06.68-.12,1.39-.18,2.11-3.81.5-7.72,1.08-11.81,1.76,1.26-4.81,2.62-10.48,3.39-16.46l.43-6.47c-.11-2.29-.33-4.74-1.09-7.13-1.19-3.7-4.22-6.06-8.09-6.31-8.17-.55-18.76,6.14-22.94,9.03-8.99,6.21-17.27,13.69-24.61,22.22-2.77,3.22-6.46,7.93-6.47,11.58,0,1.51.5,2.75,1.49,3.69,2.03,1.92,5.44,1.99,7.3,1.87,3.91-.27,8.58-.68,13.58-1.66l32.24-6.3v.02c-4.65,13.45-12.38,27.78-21.77,40.37-4.9,6.57-10.17,12.25-16.12,17.38-5.21,4.49-10.47,7.87-16.08,10.32-8.46,3.69-18.21,5.32-27.44,3.8-11.3-1.86-20.82-9.58-25.67-20.08-2.1-4.56-3.61-9.4-4.41-14.39-.13-.83-.4-2.13-.53-3.01-.15-2.81-.63-6.35-.36-9.16-.1-.43.64-11.11,1.37-21.1,1.06-14.66,4.95-29.03,11.88-41.95,7.94-14.81,18.31-28.6,30.45-40.29,11.4-10.98,23.35-18.37,34.55-21.38,10.81-2.9,20.42-1.97,28.01,2.66,2.65,1.79,5.18,3.83,7.53,6.13,9.8,9.18,15.88,22.01,17.7,35.36.17,2.87.67,6.48.42,9.34Z"/>
    </g>
  </g>
</svg>