<?xml version="1.0" encoding="UTF-8"?>
<svg id="Camada_2" data-name="Camada 2" xmlns="http://www.w3.org/2000/svg" viewBox="0 0 407.48 574.74">
  <defs>
    <style>
      .cls-1 {
        fill: #F1E9E0;
      }
    </style>
  </defs>
  <g id="Camada_1-2" data-name="Camada 1">
    <path class="cls-1" d="M406.15,156.33c-5.3-40.27-23.76-79.1-53.52-106.95C293.81-7.59,202.05-13.96,131.04,23.54,71.75,54.7,26.93,113.88,17.27,180.75c-3.74,27.73-6.08,69.61-8.71,97.8-.32,6.86-9.35,106.47-8.4,110.05-.49,7.54.34,17.7,1.03,25.37.11,3.68,1.35,8.88,1.93,12.57,15.72,88.63,91.21,148.39,180.45,148.21,102.52-.82,194.11-81.28,207.94-182.8,3.43-27.69,5.41-69.57,7.88-97.71.22-6.59,8.78-106.66,7.9-109.88.76-8.57-.7-19.38-1.12-28.02ZM136.3,33.46c42.49-23.15,93.63-29.55,139.59-17.21-6.74-.16-13.62.28-20.61,1.36-61.57,9.45-115.1,58.03-141.53,86.16-36.34,38.66-65.7,82.4-87.45,130,1.29-18.28,2.7-36.71,4.5-51.01,8.33-62.82,50.08-119.34,105.5-149.29ZM183.55,561.78c-29.54-.53-58.64-7.63-84.41-22.09-3.41-1.92-11.43-7.27-14.81-9.43-.27-.2-.54-.42-.81-.62,3.18,1.08,6.4,2.07,9.7,2.89,11.69,2.9,23.54,4.34,35.4,4.34,24.66,0,49.4-6.22,72.96-18.5,32.6-16.98,62.76-44.52,89.66-81.85,27.11-37.63,47.91-78.73,61.82-122.16l37.03-7.53c-2.15,26.7-4.36,60.62-7.54,83.81-14.12,95.98-102.01,171.66-199,171.16ZM345.88,306.59l-99.64,18.63-36.71,5.52c-3.68.55-7.84.43-12.01-.35-2.21-.42-4.04-1.58-5.15-3.28-1.13-1.72-1.47-3.91-.96-6.16,1.02-4.48,3.28-8.92,6.88-13.54,18.43-23.67,39.8-44.15,67.27-64.46,19.78-14.62,41.19-26.31,57.27-31.25,3.62-1.11,9.41-2.54,15.25-2.54,7.77,0,15.64,2.53,18.63,11.68,1.9,5.82,2.4,11.7,2.55,18.68-.76,17.14-3.18,32.46-7.42,46.85l-5.94,20.21ZM399.32,184.18c.71,2.77-7.62,103.2-8.11,109.41-.18,1.95-.35,3.98-.53,6.06-11.09,1.43-22.47,3.1-34.37,5.06,3.66-13.83,7.61-30.12,9.87-47.29l1.26-18.58c-.33-6.59-.95-13.63-3.18-20.49-3.47-10.62-12.27-17.41-23.54-18.14-23.79-1.57-54.59,17.63-66.78,25.95-26.17,17.85-50.26,39.33-71.61,63.84-8.07,9.26-18.81,22.78-18.82,33.27,0,4.34,1.46,7.9,4.34,10.6,5.91,5.53,15.82,5.73,21.24,5.37,11.38-.78,24.97-1.96,39.54-4.76l93.85-18.09-.02.05c-13.52,38.64-36.01,79.84-63.35,116-14.26,18.87-29.61,35.2-46.92,49.94-15.17,12.91-30.48,22.61-46.81,29.65-24.62,10.61-53,15.28-79.86,10.92-32.88-5.34-60.6-27.52-74.7-57.69-6.12-13.11-10.52-27.01-12.85-41.36-.37-2.39-1.17-6.12-1.53-8.64-.43-8.08-1.82-18.26-1.06-26.32-.29-1.25,1.87-31.93,3.98-60.64,3.09-42.14,14.42-83.43,34.59-120.56,23.11-42.55,53.3-82.19,88.64-115.79,33.19-31.56,67.96-52.8,100.57-61.44,31.46-8.33,59.44-5.65,81.52,7.65,7.72,5.14,15.07,11,21.92,17.61,28.52,26.37,46.23,63.24,51.52,101.6.48,8.24,1.95,18.62,1.21,26.84Z"/>
  </g>
</svg>