<?xml version="1.0" encoding="UTF-8"?>
<svg id="Camada_2" data-name="Camada 2" xmlns="http://www.w3.org/2000/svg" viewBox="0 0 845.93 80">
  <defs>
    <style>
      .cls-1 {
        fill: currentColor;
      }
    </style>
  </defs>
  <g id="Camada_1-2" data-name="Camada 1">
    <g>
      <g>
        <path class="cls-1" d="M61.47,34.01v23.96c-4.86,14.46-14.92,22.03-30.85,22.03C9.38,80,0,63.05,0,40S8.7,0,29.94,0c11.19,0,16.27,3.28,19.77,5.88l.91-.11-.45-4.18,2.6-.34s0,3.5.9,9.6c.79,5.31,2.03,10.28,2.03,10.28l-2.6.23c-2.71-11.19-11.75-18.76-23.16-18.76-14.8,0-21.13,14.35-21.13,37.4s7.01,37.29,21.81,37.29c13.67,0,22.15-8.36,22.15-23.62v-16.16h-11.75v-2.6c9.04,0,15.14-.9,15.14-.9h5.31Z"/>
        <path class="cls-1" d="M116.16,59.55s-2.03,4.97-3.73,10.4c-1.7,5.31-2.49,9.49-2.49,9.49,0,0-8.59-.45-23.28-.45s-21.69.45-21.69.45v-2.71c4.41,0,8.02.45,8.02-7.57V10.73c0-8.02-3.62-7.68-8.02-7.68V.45s7.01.56,17.97.56c11.75,0,23.73-.56,23.73-.56,0,0,.9,2.26,3.28,5.76,1.92,2.94,5.09,7.01,5.09,7.01l-2.37,1.13c-5.08-7.68-10.96-10.73-21.13-10.73h-9.72v31.3h10.85c5.87,0,7.57-3.84,10.17-9.94l2.37,1.13s-2.15,4.52-4.97,11.19c-2.37,5.76-4.18,11.41-4.18,11.41l-2.37-1.13s.9-2.26,2.03-5.08c1.36-3.73.68-4.97-3.84-4.97h-10.06v38.76h9.72c14.24,0,17.97-4.18,22.03-17.29l2.6.56Z"/>
        <path class="cls-1" d="M184.87,40c0,23.05-9.6,40-30.96,40s-30.62-16.95-30.62-40S132.66,0,153.91,0s30.96,16.84,30.96,40ZM176.05,40c0-23.05-7.23-37.4-22.15-37.4s-21.81,14.35-21.81,37.4,7.01,37.29,21.81,37.29,22.15-14.24,22.15-37.29Z"/>
        <path class="cls-1" d="M249.62,75.48c-2.71,2.37-5.31,4.52-10.4,4.52-7.34,0-9.27-7.91-13.79-21.36-5.87-17.4-8.47-21.13-20-21.13v31.98c0,7.57,3.62,7.23,8.02,7.23v2.71s-4.29-.56-12.77-.56-12.09.56-12.09.56v-2.71c4.41,0,8.02.23,8.02-7.23V10.4c0-7.57-3.62-7.34-8.02-7.34V.45s5.99.56,12.2.56c8.36,0,13.33-1.02,20.23-1.02,11.07,0,15.25,8.14,15.25,18.64,0,11.75-8.47,16.84-18.64,16.84v.9c8.25,1.58,12.43,7.91,15.93,18.76,3.62,10.96,6.1,20,11.87,20,2.03,0,3.39-1.24,3.39-1.24l.79,1.58ZM211.09,34.92c7.8,0,16.38-3.73,16.38-15.71v-1.02c0-11.41-6.22-14.46-15.59-14.46h-6.44v31.19h5.65Z"/>
        <path class="cls-1" d="M311.77,34.01v23.96c-4.86,14.46-14.92,22.03-30.85,22.03-21.24,0-30.62-16.95-30.62-40S259,0,280.24,0c11.19,0,16.27,3.28,19.77,5.88l.91-.11-.45-4.18,2.6-.34s0,3.5.9,9.6c.79,5.31,2.03,10.28,2.03,10.28l-2.6.23c-2.71-11.19-11.75-18.76-23.16-18.76-14.8,0-21.13,14.35-21.13,37.4s7.01,37.29,21.81,37.29c13.67,0,22.15-8.36,22.15-23.62v-16.16h-11.75v-2.6c9.04,0,15.14-.9,15.14-.9h5.31Z"/>
        <path class="cls-1" d="M332.11,69.49c0,7.57,3.62,7.23,8.02,7.23v2.71s-3.95-.56-12.43-.56-12.43.56-12.43.56v-2.71c4.41,0,8.02.34,8.02-7.23V10.4c0-7.57-3.62-7.34-8.02-7.34V.45s3.95.56,12.43.56,12.43-.56,12.43-.56v2.6c-4.41,0-8.02-.23-8.02,7.34v59.1Z"/>
        <path class="cls-1" d="M405.33,76.72v2.71s-3.28-.56-12.32-.56c-7.8,0-13.33.56-13.33.56v-2.71c5.2,0,9.6-1.69,7.23-11.07l-6.89-28.14h-16.27l-6.44,26.22c-2.15,8.7,1.24,12.99,7.8,12.99v2.71s-5.09-.56-10.96-.56-10.85.56-10.85.56v-2.71c7.23,0,9.27-4.97,11.07-12.2l12.77-51.75c2.03-8.02-.11-9.72-8.14-9.72V.45h5.2c3.84,0,9.94-.45,9.94-.45h5.54l16.61,66.89c2.03,8.14,5.31,9.83,9.04,9.83ZM379.35,34.92l-7.12-28.14h-.9l-6.89,28.14h14.92Z"/>
      </g>
      <g>
        <path class="cls-1" d="M488.05,76.72v2.71s-3.28-.56-12.32-.56c-7.8,0-13.33.56-13.33.56v-2.71c5.2,0,9.6-1.69,7.23-11.07l-6.89-28.14h-16.27l-6.44,26.22c-2.15,8.7,1.24,12.99,7.8,12.99v2.71s-5.09-.56-10.96-.56-10.85.56-10.85.56v-2.71c7.23,0,9.27-4.97,11.07-12.2l12.77-51.75c2.03-8.02-.11-9.72-8.14-9.72V.45h5.2c3.84,0,9.94-.45,9.94-.45h5.54l16.61,66.89c2.03,8.14,5.31,9.83,9.04,9.83ZM462.06,34.92l-7.12-28.14h-.9l-6.89,28.14h14.92Z"/>
        <path class="cls-1" d="M551.66.45v2.6c-4.41,0-8.02-.23-8.02,7.34v69.04h-7.91l-32.2-67.8h-.9v57.85c0,7.57,3.5,7.23,8.02,7.23v2.71s-4.29-.56-9.49-.56-9.27.56-9.27.56v-2.71c4.41,0,8.02.34,8.02-7.23V10.4c0-7.57-3.62-7.34-8.02-7.34V.45s3.95.56,7.91.56,8.02-.56,8.02-.56c30.96,65.08,32.32,67.8,32.32,67.8h.91V10.4c0-7.57-3.5-7.34-7.91-7.34V.45s4.07.56,9.27.56,9.27-.56,9.27-.56Z"/>
        <path class="cls-1" d="M606.58,31.75v16.5c0,16.95-3.5,31.75-16.95,31.75-5.88,0-13.45-1.13-21.36-1.13-8.47,0-13,.56-13,.56v-2.71c4.41,0,8.02.34,8.02-7.68V10.85c0-8.02-3.62-7.8-8.02-7.8V.45s4.52.56,13,.56c7.91,0,15.48-1.02,21.36-1.02,13.45,0,16.95,14.69,16.95,31.75ZM597.77,31.19c0-19.1-2.82-27.57-16.61-27.57h-9.04v72.66h9.04c13.79,0,16.61-8.47,16.61-27.57v-17.51Z"/>
        <path class="cls-1" d="M671,75.48c-2.71,2.37-5.31,4.52-10.4,4.52-7.34,0-9.27-7.91-13.79-21.36-5.87-17.4-8.47-21.13-20-21.13v31.98c0,7.57,3.62,7.23,8.02,7.23v2.71s-4.29-.56-12.77-.56-12.09.56-12.09.56v-2.71c4.41,0,8.02.23,8.02-7.23V10.4c0-7.57-3.62-7.34-8.02-7.34V.45s5.99.56,12.2.56c8.36,0,13.33-1.02,20.23-1.02,11.07,0,15.25,8.14,15.25,18.64,0,11.75-8.47,16.84-18.64,16.84v.9c8.25,1.58,12.43,7.91,15.93,18.76,3.62,10.96,6.1,20,11.87,20,2.03,0,3.39-1.24,3.39-1.24l.79,1.58ZM632.47,34.92c7.8,0,16.38-3.73,16.38-15.71v-1.02c0-11.41-6.22-14.46-15.59-14.46h-6.44v31.19h5.65Z"/>
        <path class="cls-1" d="M736.2,76.72v2.71s-3.28-.56-12.32-.56c-7.8,0-13.33.56-13.33.56v-2.71c5.2,0,9.6-1.69,7.23-11.07l-6.89-28.14h-16.27l-6.44,26.22c-2.15,8.7,1.24,12.99,7.8,12.99v2.71s-5.08-.56-10.96-.56-10.85.56-10.85.56v-2.71c7.23,0,9.27-4.97,11.07-12.2l12.77-51.75c2.03-8.02-.11-9.72-8.14-9.72V.45h5.2c3.84,0,9.94-.45,9.94-.45h5.54l16.61,66.89c2.03,8.14,5.31,9.83,9.04,9.83ZM710.21,34.92l-7.12-28.14h-.9l-6.89,28.14h14.92Z"/>
        <path class="cls-1" d="M791.34,31.75v16.5c0,16.95-3.5,31.75-16.95,31.75-5.88,0-13.45-1.13-21.36-1.13-8.47,0-13,.56-13,.56v-2.71c4.41,0,8.02.34,8.02-7.68V10.85c0-8.02-3.62-7.8-8.02-7.8V.45s4.52.56,13,.56c7.91,0,15.48-1.02,21.36-1.02,13.45,0,16.95,14.69,16.95,31.75ZM782.53,31.19c0-19.1-2.82-27.57-16.61-27.57h-9.04v72.66h9.04c13.79,0,16.61-8.47,16.61-27.57v-17.51Z"/>
        <path class="cls-1" d="M845.93,59.55s-2.03,4.97-3.73,10.4c-1.7,5.31-2.49,9.49-2.49,9.49,0,0-8.59-.45-23.28-.45s-21.69.45-21.69.45v-2.71c4.41,0,8.02.45,8.02-7.57V10.73c0-8.02-3.62-7.68-8.02-7.68V.45s7.01.56,17.97.56c11.75,0,23.73-.56,23.73-.56,0,0,.9,2.26,3.28,5.76,1.92,2.94,5.09,7.01,5.09,7.01l-2.37,1.13c-5.08-7.68-10.96-10.73-21.13-10.73h-9.72v31.3h10.85c5.87,0,7.57-3.84,10.17-9.94l2.37,1.13s-2.15,4.52-4.97,11.19c-2.37,5.76-4.18,11.41-4.18,11.41l-2.37-1.13s.9-2.26,2.03-5.08c1.36-3.73.68-4.97-3.84-4.97h-10.06v38.76h9.72c14.24,0,17.97-4.18,22.03-17.29l2.6.56Z"/>
      </g>
    </g>
  </g>
</svg>