<?xml version="1.0" encoding="UTF-8"?>
<svg id="Camada_2" data-name="Camada 2" xmlns="http://www.w3.org/2000/svg" viewBox="0 0 1350.32 892.65">
  <defs>
    <style>
      .cls-1 {
        fill: #80756D;
      }
    </style>
  </defs>
  <g id="Camada_1-2" data-name="Camada 1">
    <g>
      <g>
        <path class="cls-1" d="M240.14,876.86v-44.16h3.81v44.16h-3.81ZM240.94,836.25v-3.55h28.17v3.55h-28.17ZM240.94,855.92v-3.55h25.09v3.55h-25.09ZM240.94,876.86v-3.55h28.17v3.55h-28.17Z"/>
        <path class="cls-1" d="M305.5,877.67c-2.9,0-5.44-.32-7.63-.97s-3.97-1.62-5.35-2.91c-1.38-1.29-2.38-2.87-2.98-4.72s-.77-3.98-.5-6.39l3.55-.27c-.31,2.59,0,4.74.97,6.46.96,1.72,2.48,3,4.55,3.85,2.07.85,4.56,1.27,7.46,1.27s5.19-.35,7.16-1.04c1.96-.69,3.45-1.68,4.45-2.98,1-1.29,1.51-2.81,1.51-4.55,0-1.92-.57-3.41-1.71-4.48-1.14-1.07-2.62-1.88-4.45-2.44-1.83-.56-3.81-1.06-5.95-1.51-2.01-.4-4-.87-5.99-1.4-1.98-.53-3.78-1.25-5.38-2.14s-2.9-2.06-3.88-3.51c-.98-1.45-1.47-3.31-1.47-5.59,0-2.59.65-4.81,1.94-6.66,1.29-1.85,3.06-3.28,5.32-4.28,2.25-1,4.83-1.51,7.73-1.51s5.55.48,7.96,1.44c2.41.96,4.36,2.43,5.85,4.42,1.49,1.98,2.26,4.52,2.31,7.59l-3.81.67c0-1.74-.3-3.28-.9-4.62s-1.46-2.44-2.58-3.31-2.42-1.53-3.91-1.97c-1.5-.44-3.16-.67-4.98-.67-2.14,0-4.05.36-5.72,1.07s-3,1.72-3.98,3.01c-.98,1.29-1.47,2.83-1.47,4.62,0,2.1.68,3.72,2.04,4.88,1.36,1.16,3.12,2.05,5.29,2.68,2.16.62,4.45,1.2,6.86,1.74,1.92.4,3.75.87,5.49,1.4s3.3,1.24,4.68,2.11c1.38.87,2.47,2,3.28,3.38.8,1.38,1.2,3.15,1.2,5.29,0,2.41-.62,4.52-1.87,6.32-1.25,1.81-3.12,3.21-5.62,4.21-2.5,1-5.64,1.51-9.43,1.51Z"/>
        <path class="cls-1" d="M340.69,836.25v-3.55h31.24v3.55h-31.24ZM354.41,876.86v-44.16h3.81v44.16h-3.81Z"/>
        <path class="cls-1" d="M393.54,876.86v-44.16h3.81v44.16h-3.81ZM394.35,836.25v-3.55h28.17v3.55h-28.17ZM394.35,855.92v-3.55h25.09v3.55h-25.09ZM394.35,876.86v-3.55h28.17v3.55h-28.17ZM407.53,827.02h-3.68l4.68-9.77h4.75l-5.75,9.77Z"/>
        <path class="cls-1" d="M443.32,836.25v-3.55h31.24v3.55h-31.24ZM457.03,876.86v-44.16h3.81v44.16h-3.81Z"/>
        <path class="cls-1" d="M496.17,876.86v-44.16h3.88v44.16h-3.88Z"/>
        <path class="cls-1" d="M543.67,877.67c-3.03,0-5.74-.5-8.13-1.51-2.39-1-4.41-2.46-6.05-4.38-1.65-1.92-2.9-4.26-3.75-7.02-.85-2.76-1.27-5.89-1.27-9.37s.43-6.72,1.3-9.6,2.13-5.35,3.78-7.43c1.65-2.07,3.65-3.67,5.99-4.78,2.34-1.11,4.98-1.67,7.93-1.67,2.23,0,4.29.32,6.19.97,1.89.65,3.53,1.58,4.92,2.81,1.38,1.23,2.46,2.71,3.24,4.45.78,1.74,1.17,3.68,1.17,5.82l-3.68.87c.04-2.54-.47-4.64-1.54-6.29-1.07-1.65-2.52-2.89-4.35-3.71-1.83-.82-3.81-1.24-5.95-1.24s-4,.4-5.85,1.21c-1.85.8-3.47,2.01-4.85,3.61-1.38,1.6-2.47,3.66-3.28,6.15-.8,2.5-1.21,5.46-1.21,8.9,0,4.33.64,7.84,1.91,10.54,1.27,2.7,3.08,4.67,5.42,5.92,2.34,1.25,5.09,1.87,8.26,1.87,2.94,0,5.34-.5,7.19-1.51,1.85-1,3.25-2.48,4.21-4.41.96-1.94,1.48-4.32,1.57-7.13l3.61.74c-.05,2.19-.4,4.26-1.07,6.22-.67,1.96-1.68,3.69-3.04,5.18-1.36,1.5-3.09,2.67-5.18,3.51-2.1.85-4.59,1.27-7.49,1.27Z"/>
        <path class="cls-1" d="M578.92,876.86l15.79-44.16h5.55l15.79,44.16h-4.02l-14.18-40.68h-.67l-14.18,40.68h-4.08ZM585.55,866.16v-3.41h24.28v3.41h-24.28Z"/>
        <path class="cls-1" d="M662.75,876.86l15.25-44.16h12.38l15.25,44.16h-9.23l-11.71-37.4h-.94l-11.84,37.4h-9.17ZM670.85,867.77v-5.95h27.83v5.95h-27.83Z"/>
        <path class="cls-1" d="M731.19,876.86l-14.79-44.16h9.23l11.17,36.93h.8l11.24-36.93h9.1l-14.85,44.16h-11.91Z"/>
        <path class="cls-1" d="M768.79,876.86l15.25-44.16h12.38l15.25,44.16h-9.23l-11.71-37.4h-.94l-11.84,37.4h-9.17ZM776.88,867.77v-5.95h27.83v5.95h-27.83Z"/>
        <path class="cls-1" d="M831.68,876.86v-44.16h11.04l21.14,32.85h.6l-.54-32.85h8.23v44.16h-10.03l-22.08-34.12h-.67l.54,34.12h-8.23Z"/>
        <path class="cls-1" d="M915.63,877.73c-3.35,0-6.33-.48-8.96-1.44-2.63-.96-4.86-2.38-6.69-4.28-1.83-1.89-3.23-4.25-4.21-7.06-.98-2.81-1.47-6.02-1.47-9.63s.5-7.07,1.5-9.97c1-2.9,2.42-5.36,4.25-7.39,1.83-2.03,4.01-3.56,6.56-4.58s5.37-1.54,8.5-1.54c2.41,0,4.64.31,6.69.94,2.05.62,3.82,1.55,5.32,2.78,1.49,1.23,2.66,2.7,3.51,4.42.85,1.72,1.29,3.67,1.34,5.85l-7.89,2.07c.04-2.01-.38-3.68-1.27-5.02-.89-1.34-2.04-2.34-3.45-3.01-1.4-.67-2.91-1-4.52-1-1.43,0-2.84.29-4.25.87-1.4.58-2.67,1.5-3.78,2.74-1.12,1.25-2.01,2.89-2.68,4.92-.67,2.03-1,4.52-1,7.46,0,3.75.55,6.78,1.64,9.1,1.09,2.32,2.61,4.03,4.55,5.12,1.94,1.09,4.14,1.64,6.59,1.64s4.48-.5,5.95-1.51c1.47-1,2.54-2.34,3.21-4.01.67-1.67,1.05-3.49,1.14-5.45l7.43,1.27c-.05,2.32-.4,4.51-1.07,6.56-.67,2.05-1.71,3.84-3.11,5.35-1.4,1.52-3.24,2.7-5.52,3.55-2.27.85-5.04,1.27-8.3,1.27ZM906,891.85l1.14-4.41c.71.13,1.63.25,2.74.37,1.11.11,2.23.14,3.35.1,1.11-.05,2.05-.27,2.81-.67.76-.4,1.14-1.05,1.14-1.94,0-.31-.06-.62-.17-.94-.11-.31-.42-.59-.94-.84s-1.33-.43-2.44-.57c-1.11-.13-2.65-.16-4.62-.07l.74-6.42h4.55l-.4,4.15c2.05-.09,3.72.06,5.02.43,1.29.38,2.25.96,2.88,1.74.62.78.94,1.77.94,2.98,0,1.83-.58,3.25-1.74,4.28-1.16,1.03-2.62,1.74-4.38,2.14-1.76.4-3.59.55-5.49.43-1.9-.11-3.6-.37-5.12-.77Z"/>
        <path class="cls-1" d="M950.09,876.86l15.25-44.16h12.38l15.25,44.16h-9.23l-11.71-37.4h-.94l-11.84,37.4h-9.17ZM958.18,867.77v-5.95h27.83v5.95h-27.83Z"/>
        <path class="cls-1" d="M1012.98,876.86v-44.16h8.43v44.16h-8.43ZM1017.12,876.86v-6.96h12.91c2.68,0,4.89-.6,6.66-1.81s3.08-2.92,3.95-5.15,1.3-4.91,1.3-8.03c0-2.63-.28-4.91-.84-6.82-.56-1.92-1.4-3.49-2.51-4.72s-2.52-2.15-4.21-2.78c-1.7-.62-3.68-.94-5.96-.94h-11.31v-6.96h11.04c5.22,0,9.49.87,12.81,2.61,3.32,1.74,5.78,4.23,7.36,7.46,1.58,3.23,2.37,7.12,2.37,11.67,0,3.21-.38,6.05-1.14,8.53-.76,2.48-1.78,4.59-3.08,6.36s-2.81,3.2-4.55,4.32c-1.74,1.11-3.6,1.93-5.59,2.44-1.99.51-4.03.77-6.12.77h-13.11Z"/>
        <path class="cls-1" d="M1067.3,876.86l15.25-44.16h12.38l15.25,44.16h-9.23l-11.71-37.4h-.94l-11.84,37.4h-9.17ZM1075.39,867.77v-5.95h27.83v5.95h-27.83Z"/>
      </g>
      <path class="cls-1" d="M843.81,130.25c-4.41-33.56-19.79-65.9-44.6-89.12-49.01-47.46-125.46-52.77-184.63-21.52-49.4,25.96-86.74,75.27-94.8,130.98-3.11,23.11-5.07,58-7.26,81.49-.26,5.71-7.79,88.71-7,91.69-.41,6.28.28,14.75.86,21.14.09,3.06,1.12,7.4,1.61,10.47,13.09,73.85,76,123.64,150.35,123.49,85.42-.69,161.73-67.73,173.26-152.31,2.86-23.07,4.51-57.97,6.56-81.41.18-5.49,7.31-88.87,6.58-91.55.63-7.14-.59-16.15-.93-23.35ZM618.97,27.88c35.41-19.29,78.02-24.63,116.31-14.34-5.62-.13-11.35.24-17.17,1.13-51.3,7.87-95.9,48.35-117.93,71.79-30.28,32.21-54.74,68.66-72.86,108.31,1.07-15.23,2.25-30.59,3.75-42.5,6.94-52.34,41.73-99.43,87.9-124.39ZM658.34,468.08c-24.61-.44-48.86-6.36-70.33-18.4-2.84-1.6-9.53-6.05-12.34-7.86-.22-.16-.45-.35-.67-.52,2.65.9,5.33,1.72,8.08,2.41,9.74,2.42,19.61,3.62,29.5,3.62,20.55,0,41.16-5.18,60.79-15.42,27.16-14.15,52.29-37.1,74.71-68.2,22.59-31.35,39.92-65.6,51.51-101.79l30.85-6.27c-1.79,22.25-3.63,50.51-6.28,69.83-11.77,79.97-84.99,143.03-165.81,142.61ZM793.6,255.45l-83.02,15.53-30.59,4.6c-3.07.46-6.53.36-10.01-.29-1.84-.35-3.37-1.32-4.29-2.73-.94-1.44-1.23-3.26-.8-5.13.85-3.74,2.73-7.43,5.73-11.29,15.35-19.72,33.16-36.79,56.05-53.71,16.48-12.18,34.32-21.92,47.72-26.03,3.02-.93,7.84-2.12,12.7-2.12,6.47,0,13.03,2.11,15.52,9.73,1.58,4.85,2,9.75,2.12,15.56-.63,14.28-2.65,27.05-6.18,39.04l-4.95,16.84ZM838.12,153.46c.59,2.31-6.35,85.98-6.75,91.16-.15,1.62-.29,3.32-.44,5.05-9.24,1.2-18.73,2.58-28.64,4.22,3.05-11.52,6.34-25.1,8.22-39.4l1.05-15.48c-.28-5.49-.79-11.36-2.65-17.07-2.89-8.85-10.22-14.5-19.62-15.12-19.82-1.31-45.49,14.69-55.64,21.62-21.8,14.87-41.88,32.77-59.67,53.19-6.73,7.72-15.67,18.98-15.68,27.72,0,3.61,1.21,6.58,3.62,8.83,4.93,4.61,13.18,4.77,17.7,4.47,9.48-.65,20.8-1.63,32.94-3.97l78.19-15.07-.02.04c-11.26,32.2-30,66.52-52.78,96.65-11.88,15.72-24.67,29.33-39.09,41.61-12.64,10.76-25.39,18.84-39,24.71-20.51,8.84-44.16,12.73-66.54,9.1-27.39-4.45-50.49-22.93-62.24-48.07-5.1-10.92-8.77-22.51-10.7-34.47-.31-1.99-.97-5.1-1.28-7.2-.36-6.74-1.52-15.21-.88-21.93-.24-1.04,1.56-26.61,3.32-50.53,2.57-35.11,12.01-69.51,28.82-100.45,19.25-35.45,44.41-68.48,73.85-96.48,27.65-26.29,56.63-44,83.8-51.19,26.21-6.94,49.53-4.71,67.93,6.37,6.44,4.28,12.55,9.17,18.27,14.67,23.76,21.97,38.52,52.7,42.93,84.66.4,6.86,1.62,15.51,1.01,22.36Z"/>
      <g>
        <g>
          <path class="cls-1" d="M98.12,644.79v38.24c-7.76,23.09-23.81,35.17-49.24,35.17-33.91,0-48.88-27.06-48.88-63.85s13.89-63.85,47.8-63.85c17.86,0,25.97,5.23,31.56,9.38l1.44-.18-.72-6.67,4.15-.54s0,5.59,1.44,15.33c1.26,8.48,3.25,16.41,3.25,16.41l-4.15.36c-4.33-17.86-18.76-29.94-36.98-29.94-23.63,0-33.73,22.91-33.73,59.7s11.18,59.52,34.81,59.52c21.83,0,35.35-13.35,35.35-37.7v-25.79h-18.76v-4.15c14.43,0,24.17-1.44,24.17-1.44h8.48Z"/>
          <path class="cls-1" d="M185.43,685.56s-3.25,7.94-5.95,16.59c-2.71,8.48-3.97,15.15-3.97,15.15,0,0-13.71-.72-37.16-.72s-34.63.72-34.63.72v-4.33c7.03,0,12.81.72,12.81-12.08v-93.25c0-12.81-5.77-12.27-12.81-12.27v-4.15s11.18.9,28.68.9c18.76,0,37.88-.9,37.88-.9,0,0,1.44,3.61,5.23,9.2,3.07,4.69,8.12,11.18,8.12,11.18l-3.79,1.8c-8.12-12.27-17.5-17.14-33.73-17.14h-15.51v49.96h17.32c9.38,0,12.08-6.13,16.23-15.87l3.79,1.8s-3.43,7.21-7.94,17.86c-3.79,9.2-6.67,18.22-6.67,18.22l-3.79-1.8s1.44-3.61,3.25-8.12c2.17-5.95,1.08-7.94-6.13-7.94h-16.05v61.87h15.51c22.73,0,28.68-6.67,35.17-27.6l4.15.9Z"/>
          <path class="cls-1" d="M295.1,654.35c0,36.8-15.33,63.85-49.42,63.85s-48.88-27.06-48.88-63.85,14.97-63.85,48.88-63.85,49.42,26.88,49.42,63.85ZM281.03,654.35c0-36.8-11.54-59.7-35.35-59.7s-34.81,22.91-34.81,59.7,11.18,59.52,34.81,59.52,35.35-22.73,35.35-59.52Z"/>
          <path class="cls-1" d="M398.46,710.99c-4.33,3.79-8.48,7.21-16.6,7.21-11.72,0-14.79-12.63-22.01-34.09-9.38-27.78-13.53-33.73-31.92-33.73v51.04c0,12.08,5.77,11.54,12.81,11.54v4.33s-6.85-.9-20.38-.9-19.3.9-19.3.9v-4.33c7.03,0,12.81.36,12.81-11.54v-94.33c0-12.08-5.77-11.72-12.81-11.72v-4.15s9.56.9,19.48.9c13.35,0,21.28-1.62,32.29-1.62,17.68,0,24.35,12.99,24.35,29.76,0,18.76-13.53,26.88-29.76,26.88v1.44c13.17,2.53,19.84,12.63,25.43,29.94,5.77,17.5,9.74,31.93,18.94,31.93,3.25,0,5.41-1.98,5.41-1.98l1.26,2.53ZM336.95,646.24c12.44,0,26.15-5.95,26.15-25.07v-1.62c0-18.22-9.92-23.09-24.89-23.09h-10.28v49.78h9.02Z"/>
          <path class="cls-1" d="M497.66,644.79v38.24c-7.76,23.09-23.81,35.17-49.24,35.17-33.91,0-48.88-27.06-48.88-63.85s13.89-63.85,47.8-63.85c17.86,0,25.97,5.23,31.56,9.38l1.44-.18-.72-6.67,4.15-.54s0,5.59,1.44,15.33c1.26,8.48,3.25,16.41,3.25,16.41l-4.15.36c-4.33-17.86-18.76-29.94-36.98-29.94-23.63,0-33.73,22.91-33.73,59.7s11.18,59.52,34.81,59.52c21.83,0,35.35-13.35,35.35-37.7v-25.79h-18.76v-4.15c14.43,0,24.17-1.44,24.17-1.44h8.48Z"/>
          <path class="cls-1" d="M530.14,701.43c0,12.08,5.77,11.54,12.81,11.54v4.33s-6.31-.9-19.84-.9-19.84.9-19.84.9v-4.33c7.03,0,12.81.54,12.81-11.54v-94.33c0-12.08-5.77-11.72-12.81-11.72v-4.15s6.31.9,19.84.9,19.84-.9,19.84-.9v4.15c-7.03,0-12.81-.36-12.81,11.72v94.33Z"/>
          <path class="cls-1" d="M647.02,712.97v4.33s-5.23-.9-19.66-.9c-12.45,0-21.28.9-21.28.9v-4.33c8.3,0,15.33-2.71,11.54-17.68l-11-44.91h-25.97l-10.28,41.85c-3.43,13.89,1.98,20.74,12.45,20.74v4.33s-8.12-.9-17.5-.9-17.32.9-17.32.9v-4.33c11.54,0,14.79-7.94,17.68-19.48l20.38-82.61c3.25-12.81-.18-15.51-12.99-15.51v-4.15h8.3c6.13,0,15.87-.72,15.87-.72h8.84l26.51,106.78c3.25,12.99,8.48,15.69,14.43,15.69ZM605.54,646.24l-11.36-44.91h-1.44l-11,44.91h23.81Z"/>
        </g>
        <g>
          <path class="cls-1" d="M779.05,712.97v4.33s-5.23-.9-19.66-.9c-12.45,0-21.28.9-21.28.9v-4.33c8.3,0,15.33-2.71,11.54-17.68l-11-44.91h-25.97l-10.28,41.85c-3.43,13.89,1.98,20.74,12.45,20.74v4.33s-8.12-.9-17.5-.9-17.32.9-17.32.9v-4.33c11.54,0,14.79-7.94,17.68-19.48l20.38-82.61c3.25-12.81-.18-15.51-12.99-15.51v-4.15h8.3c6.13,0,15.87-.72,15.87-.72h8.84l26.51,106.78c3.25,12.99,8.48,15.69,14.43,15.69ZM737.57,646.24l-11.36-44.91h-1.44l-11,44.91h23.81Z"/>
          <path class="cls-1" d="M880.61,591.22v4.15c-7.03,0-12.81-.36-12.81,11.72v110.21h-12.63l-51.41-108.22h-1.44v92.35c0,12.08,5.59,11.54,12.81,11.54v4.33s-6.85-.9-15.15-.9-14.79.9-14.79.9v-4.33c7.03,0,12.81.54,12.81-11.54v-94.33c0-12.08-5.77-11.72-12.81-11.72v-4.15s6.31.9,12.63.9,12.81-.9,12.81-.9c49.42,103.89,51.58,108.22,51.58,108.22h1.44v-92.35c0-12.08-5.59-11.72-12.63-11.72v-4.15s6.49.9,14.79.9,14.79-.9,14.79-.9Z"/>
          <path class="cls-1" d="M968.27,641.19v26.33c0,27.06-5.59,50.68-27.05,50.68-9.38,0-21.46-1.8-34.09-1.8-13.53,0-20.74.9-20.74.9v-4.33c7.03,0,12.81.54,12.81-12.27v-92.89c0-12.81-5.77-12.45-12.81-12.45v-4.15s7.22.9,20.74.9c12.63,0,24.71-1.62,34.09-1.62,21.46,0,27.05,23.45,27.05,50.68ZM954.2,640.28c0-30.48-4.51-44.01-26.51-44.01h-14.43v115.98h14.43c22.01,0,26.51-13.53,26.51-44.01v-27.96Z"/>
          <path class="cls-1" d="M1071.09,710.99c-4.33,3.79-8.48,7.21-16.6,7.21-11.72,0-14.79-12.63-22.01-34.09-9.38-27.78-13.53-33.73-31.92-33.73v51.04c0,12.08,5.77,11.54,12.81,11.54v4.33s-6.85-.9-20.38-.9-19.3.9-19.3.9v-4.33c7.03,0,12.81.36,12.81-11.54v-94.33c0-12.08-5.77-11.72-12.81-11.72v-4.15s9.56.9,19.48.9c13.35,0,21.28-1.62,32.29-1.62,17.68,0,24.35,12.99,24.35,29.76,0,18.76-13.53,26.88-29.76,26.88v1.44c13.17,2.53,19.84,12.63,25.43,29.94,5.77,17.5,9.74,31.93,18.94,31.93,3.25,0,5.41-1.98,5.41-1.98l1.26,2.53ZM1009.58,646.24c12.44,0,26.15-5.95,26.15-25.07v-1.62c0-18.22-9.92-23.09-24.89-23.09h-10.28v49.78h9.02Z"/>
          <path class="cls-1" d="M1175.17,712.97v4.33s-5.23-.9-19.66-.9c-12.45,0-21.28.9-21.28.9v-4.33c8.3,0,15.33-2.71,11.54-17.68l-11-44.91h-25.97l-10.28,41.85c-3.43,13.89,1.98,20.74,12.45,20.74v4.33s-8.12-.9-17.5-.9-17.32.9-17.32.9v-4.33c11.54,0,14.79-7.94,17.68-19.48l20.38-82.61c3.25-12.81-.18-15.51-12.99-15.51v-4.15h8.3c6.13,0,15.87-.72,15.87-.72h8.84l26.51,106.78c3.25,12.99,8.48,15.69,14.43,15.69ZM1133.68,646.24l-11.36-44.91h-1.44l-11,44.91h23.81Z"/>
          <path class="cls-1" d="M1263.2,641.19v26.33c0,27.06-5.59,50.68-27.05,50.68-9.38,0-21.46-1.8-34.09-1.8-13.53,0-20.74.9-20.74.9v-4.33c7.03,0,12.81.54,12.81-12.27v-92.89c0-12.81-5.77-12.45-12.81-12.45v-4.15s7.22.9,20.74.9c12.63,0,24.71-1.62,34.09-1.62,21.46,0,27.05,23.45,27.05,50.68ZM1249.13,640.28c0-30.48-4.51-44.01-26.51-44.01h-14.43v115.98h14.43c22.01,0,26.51-13.53,26.51-44.01v-27.96Z"/>
          <path class="cls-1" d="M1350.32,685.56s-3.25,7.94-5.95,16.59c-2.71,8.48-3.97,15.15-3.97,15.15,0,0-13.71-.72-37.16-.72s-34.63.72-34.63.72v-4.33c7.03,0,12.81.72,12.81-12.08v-93.25c0-12.81-5.77-12.27-12.81-12.27v-4.15s11.18.9,28.68.9c18.76,0,37.88-.9,37.88-.9,0,0,1.44,3.61,5.23,9.2,3.07,4.69,8.12,11.18,8.12,11.18l-3.79,1.8c-8.12-12.27-17.5-17.14-33.73-17.14h-15.51v49.96h17.32c9.38,0,12.08-6.13,16.23-15.87l3.79,1.8s-3.43,7.21-7.94,17.86c-3.79,9.2-6.67,18.22-6.67,18.22l-3.79-1.8s1.44-3.61,3.25-8.12c2.17-5.95,1.08-7.94-6.13-7.94h-16.05v61.87h15.51c22.73,0,28.68-6.67,35.17-27.6l4.15.9Z"/>
        </g>
      </g>
    </g>
  </g>
</svg>