<?xml version="1.0" encoding="UTF-8"?>
<svg id="Camada_2" data-name="Camada 2" xmlns="http://www.w3.org/2000/svg" viewBox="0 0 557.29 600">
  <defs>
    <style>
      .cls-1 {
        fill: #c77dff;
      }

      .cls-2 {
        fill: #7b2cbf;
      }
    </style>
  </defs>
  <g id="Camada_1-2" data-name="Camada 1">
    <g>
      <path class="cls-2" d="M78.35,39.96h-34.21v35.26h30.29v33.95h-30.29v38.91h34.21v37.35H2.35V2.61h76v37.34Z"/>
      <path class="cls-2" d="M162.96,185.42h-76V2.61h41.79v145.46h34.21v37.35Z"/>
      <path class="cls-2" d="M274.21,2.61h41.79v182.81h-41.79V2.61Z"/>
      <path class="cls-1" d="M100.02,258.48v82.26c0,9.4-.52,17.46-1.57,24.16-1.05,6.7-2.74,12.23-5.09,16.58-2.35,4.35-5.44,7.53-9.27,9.53-3.83,2-8.53,3-14.1,3-7.84,0-14.54-2.27-20.11-6.79-5.57-4.53-9.58-12.88-12.01-25.07h-2.87l4.7,29.25H2.35v-182.81h48.84c17.58,0,30.12,3.92,37.61,11.75,7.48,7.84,11.23,20.55,11.23,38.13ZM60.85,271.53c0-5.22-.18-9.53-.52-12.93-.35-3.4-.91-6.01-1.7-7.84-.78-1.83-1.79-3.09-3-3.79-1.22-.69-2.7-1.05-4.44-1.05h-7.05v83.05c0,5.75.22,10.41.65,13.97.43,3.57,1,6.36,1.7,8.36.69,2,1.52,3.4,2.48,4.18.95.78,2.04,1.17,3.26,1.17,1.57,0,2.91-.39,4.05-1.17,1.13-.78,2-2.13,2.61-4.05.61-1.91,1.08-4.61,1.44-8.1.35-3.48.52-7.83.52-13.06v-58.76Z"/>
      <path class="cls-1" d="M185.16,245.94h-34.21v35.26h30.29v33.95h-30.29v38.91h34.21v37.35h-76v-182.81h76v37.34Z"/>
      <path class="cls-1" d="M230.6,337.08c0,13.06,2.96,19.59,8.88,19.59,2.96,0,5.18-1.35,6.66-4.05,1.48-2.7,2.22-7.35,2.22-13.97v-2.61c0-4.53-.7-8.4-2.09-11.62-1.4-3.22-3.26-6.09-5.61-8.62-2.35-2.52-5.14-4.83-8.36-6.92-3.22-2.09-6.57-4.26-10.05-6.53-3.83-2.61-7.62-5.31-11.36-8.1-3.75-2.78-7.05-6.05-9.92-9.79-2.87-3.74-5.18-8.14-6.92-13.19-1.74-5.05-2.61-11.06-2.61-18.02v-2.61c0-6.27.87-12.14,2.61-17.63,1.74-5.48,4.57-10.23,8.49-14.23,3.92-4,8.96-7.14,15.15-9.4,6.18-2.26,13.71-3.4,22.59-3.4,17.58,0,30.12,4.22,37.61,12.67,7.48,8.45,11.23,20.85,11.23,37.21v19.06h-39.17v-8.62c0-9.23-.91-15.36-2.74-18.41-1.83-3.04-4.48-4.57-7.97-4.57-4.87,0-7.31,3.22-7.31,9.66v2.61c0,3.13.74,6.01,2.22,8.62,1.48,2.61,3.48,5.09,6.01,7.44,2.52,2.35,5.4,4.66,8.62,6.92,3.22,2.26,6.57,4.62,10.05,7.05,4,2.79,7.84,5.62,11.49,8.49,3.65,2.87,6.87,6.31,9.66,10.32,2.78,4.01,5,8.71,6.66,14.1,1.65,5.4,2.48,11.93,2.48,19.59v5.22c0,16.37-3.75,28.9-11.23,37.61-7.49,8.71-20.02,13.06-37.61,13.06s-30.34-4.35-37.74-13.06c-7.4-8.7-11.1-21.24-11.1-37.61v-11.49c0-3.48.09-6.27.26-8.36.17-2.09.43-3.83.78-5.22.17-1.57.43-2.7.78-3.4h39.17c-.35,1.22-.61,2.87-.78,4.96-.35,1.92-.61,4.27-.78,7.05-.18,2.79-.26,6.18-.26,10.18Z"/>
      <path class="cls-1" d="M297.19,208.6h41.79v182.81h-41.79v-182.81Z"/>
      <path class="cls-1" d="M445.52,391.4h-37.35l5.75-31.86h-2.61c-1.22,6.79-2.79,12.4-4.7,16.84-1.92,4.44-4.18,7.97-6.79,10.58-2.61,2.61-5.61,4.44-9.01,5.48-3.39,1.04-7.1,1.57-11.1,1.57-11.32,0-19.41-4.48-24.29-13.45-4.88-8.96-7.31-22.24-7.31-39.83v-84.88c0-16.36,3.7-28.77,11.1-37.21,7.4-8.44,19.98-12.67,37.74-12.67s30.12,4.22,37.61,12.67c7.48,8.45,11.23,20.85,11.23,37.21v19.06h-39.17v-8.62c0-9.23-.74-15.36-2.22-18.41-1.48-3.04-3.96-4.57-7.44-4.57s-5.97,1.53-7.44,4.57c-1.48,3.05-2.22,9.18-2.22,18.41v16.71h58.5l-.26,108.38ZM387.28,330.29c0,5.22.13,9.58.39,13.06.26,3.49.74,6.18,1.44,8.1.69,1.92,1.61,3.26,2.74,4.05,1.13.78,2.48,1.17,4.05,1.17,1.21,0,2.3-.39,3.26-1.17.96-.78,1.78-2.18,2.48-4.18.69-2,1.26-4.79,1.7-8.36.43-3.57.65-8.23.65-13.97v-12.01h-16.71v13.32Z"/>
      <path class="cls-1" d="M516.55,311.49h2.61l-2.61-102.89h36.56v182.81h-47.01l-14.1-104.2h-2.61l2.61,104.2h-36.56v-182.81h47.01l14.1,102.89Z"/>
      <path class="cls-1" d="M39.17,543.07c0,13.06,2.96,19.59,8.88,19.59,2.96,0,5.18-1.35,6.66-4.05,1.48-2.7,2.22-7.35,2.22-13.97v-2.61c0-4.53-.7-8.4-2.09-11.62-1.4-3.22-3.26-6.09-5.61-8.62-2.35-2.52-5.14-4.83-8.36-6.92-3.22-2.09-6.57-4.26-10.05-6.53-3.83-2.61-7.62-5.31-11.36-8.1-3.75-2.78-7.05-6.05-9.92-9.79-2.87-3.74-5.18-8.14-6.92-13.19-1.74-5.05-2.61-11.06-2.61-18.02v-2.61c0-6.27.87-12.14,2.61-17.63,1.74-5.48,4.57-10.23,8.49-14.23,3.92-4,8.96-7.14,15.15-9.4,6.18-2.26,13.71-3.4,22.59-3.4,17.58,0,30.12,4.22,37.61,12.67,7.48,8.45,11.23,20.85,11.23,37.21v19.06h-39.17v-8.62c0-9.23-.91-15.36-2.74-18.41-1.83-3.04-4.48-4.57-7.97-4.57-4.87,0-7.31,3.22-7.31,9.66v2.61c0,3.13.74,6.01,2.22,8.62,1.48,2.61,3.48,5.09,6.01,7.44,2.52,2.35,5.4,4.66,8.62,6.92,3.22,2.26,6.57,4.62,10.05,7.05,4,2.79,7.84,5.62,11.49,8.49,3.65,2.87,6.87,6.31,9.66,10.32,2.78,4.01,5,8.71,6.66,14.1,1.65,5.4,2.48,11.93,2.48,19.59v5.22c0,16.37-3.75,28.9-11.23,37.61-7.49,8.71-20.02,13.06-37.61,13.06s-30.34-4.35-37.74-13.06c-7.4-8.7-11.1-21.24-11.1-37.61v-11.49c0-3.48.09-6.27.26-8.36.17-2.09.43-3.83.78-5.22.17-1.57.43-2.7.78-3.4h39.17c-.35,1.22-.61,2.87-.78,4.96-.35,1.92-.61,4.27-.78,7.05-.18,2.79-.26,6.18-.26,10.18Z"/>
      <path class="cls-1" d="M165.31,597.39h-41.79v-145.46h-24.55v-37.34h90.88v37.34h-24.55v145.46Z"/>
      <path class="cls-1" d="M194.3,414.58h39.17v125.09c0,9.23.74,15.37,2.22,18.41,1.48,3.05,3.96,4.57,7.44,4.57s5.96-1.52,7.44-4.57c1.48-3.04,2.22-9.18,2.22-18.41v-125.09h39.17v135.54c0,16.37-3.75,28.77-11.23,37.22-7.49,8.45-20.02,12.67-37.61,12.67s-30.34-4.22-37.74-12.67c-7.4-8.44-11.1-20.85-11.1-37.22v-135.54Z"/>
      <path class="cls-1" d="M399.3,464.46v82.26c0,9.4-.52,17.46-1.57,24.16-1.05,6.7-2.74,12.23-5.09,16.58-2.35,4.35-5.44,7.53-9.27,9.53-3.83,2-8.53,3-14.1,3-7.84,0-14.54-2.27-20.11-6.79-5.57-4.53-9.58-12.88-12.01-25.07h-2.87l4.7,29.25h-37.35v-182.81h48.84c17.58,0,30.12,3.92,37.61,11.75,7.48,7.84,11.23,20.55,11.23,38.13ZM360.13,477.52c0-5.22-.18-9.53-.52-12.93-.35-3.4-.91-6.01-1.7-7.84-.78-1.83-1.79-3.09-3-3.79-1.22-.69-2.7-1.05-4.44-1.05h-7.05v83.05c0,5.75.22,10.41.65,13.97.43,3.57,1,6.36,1.7,8.36.69,2,1.52,3.4,2.48,4.18.95.78,2.04,1.17,3.26,1.17,1.57,0,2.91-.39,4.05-1.17,1.13-.78,2-2.13,2.61-4.05.61-1.91,1.08-4.61,1.44-8.1.35-3.48.52-7.83.52-13.06v-58.76Z"/>
      <path class="cls-1" d="M408.7,414.58h41.79v182.81h-41.79v-182.81Z"/>
      <path class="cls-1" d="M508.46,411.97c17.58,0,30.12,4.22,37.61,12.67,7.48,8.45,11.23,20.76,11.23,36.95v88.53c0,16.37-3.75,28.77-11.23,37.22-7.49,8.45-20.02,12.67-37.61,12.67s-30.34-4.22-37.74-12.67c-7.4-8.44-11.1-20.85-11.1-37.22v-88.53c0-16.19,3.7-28.51,11.1-36.95,7.4-8.44,19.98-12.67,37.74-12.67ZM516.81,472.3c0-9.23-.7-15.36-2.09-18.41-1.4-3.04-3.48-4.57-6.27-4.57s-4.88,1.53-6.27,4.57c-1.39,3.05-2.09,9.18-2.09,18.41v67.38c0,9.23.69,15.37,2.09,18.41,1.39,3.05,3.48,4.57,6.27,4.57s4.87-1.52,6.27-4.57c1.39-3.04,2.09-9.18,2.09-18.41v-67.38Z"/>
      <path class="cls-2" d="M215.97,0c17.58,0,30.12,4.22,37.61,12.67,7.48,8.45,11.23,20.76,11.23,36.95v88.53c0,16.37-3.75,28.77-11.23,37.22-7.49,8.45-20.02,12.67-37.61,12.67s-30.34-4.22-37.74-12.67c-7.4-8.44-11.1-20.85-11.1-37.22V49.62c0-16.19,3.7-28.51,11.1-36.95,7.4-8.44,19.98-12.67,37.74-12.67ZM224.33,60.33c0-9.23-.7-15.36-2.09-18.41-1.4-3.04-3.48-4.57-6.27-4.57s-4.88,1.53-6.27,4.57c-1.39,3.05-2.09,9.18-2.09,18.41v67.38c0,9.23.69,15.37,2.09,18.41,1.39,3.05,3.48,4.57,6.27,4.57s4.87-1.52,6.27-4.57c1.39-3.04,2.09-9.18,2.09-18.41V60.33Z"/>
    </g>
  </g>
</svg>