<?xml version="1.0" encoding="UTF-8"?>
<svg role="img" aria-label="ELOI Design Studio" xmlns="http://www.w3.org/2000/svg" viewBox="0 0 540.45 348">
  <defs>
    <style>
      .eloi-a {
        fill: #E0AAFF;
      }

      .eloi-b {
        fill: #C77DFF;
      }
    </style>
  </defs>
  <g>
    <g>
      <path class="eloi-a" d="M1.65,1.5h69.9v19.05H23.1v24h46.95v18.9H23.1v24h48.45v19.05H1.65V1.5Z"/>
      <path class="eloi-a" d="M85.95,1.5h21.45v85.95h48.45v19.05h-69.9V1.5Z"/>
      <path class="eloi-a" d="M165.82,26.62c4.85-8.25,11.5-14.75,19.95-19.5,8.45-4.75,17.77-7.12,27.97-7.12s19.52,2.38,27.98,7.12c8.45,4.75,15.1,11.25,19.95,19.5,4.85,8.25,7.28,17.38,7.28,27.38s-2.43,19.12-7.28,27.38c-4.85,8.25-11.5,14.75-19.95,19.5-8.45,4.75-17.78,7.12-27.98,7.12s-19.53-2.37-27.97-7.12c-8.45-4.75-15.1-11.25-19.95-19.5-4.85-8.25-7.28-17.37-7.28-27.38s2.42-19.12,7.28-27.38ZM185.1,71.4c2.9,5.2,6.85,9.33,11.85,12.38,5,3.05,10.6,4.57,16.8,4.57s11.67-1.52,16.73-4.57c5.05-3.05,9.02-7.17,11.92-12.38,2.9-5.2,4.35-11,4.35-17.4s-1.45-12.2-4.35-17.4c-2.9-5.2-6.85-9.32-11.85-12.38-5-3.05-10.6-4.57-16.8-4.57s-11.68,1.53-16.72,4.57c-5.05,3.05-9.03,7.18-11.92,12.38-2.9,5.2-4.35,11-4.35,17.4s1.45,12.2,4.35,17.4Z"/>
      <path class="eloi-a" d="M282.15,1.5h21.45v105h-21.45V1.5Z"/>
      <path class="eloi-b" d="M1.65,121.5h41.7c10.1,0,19.25,2.3,27.45,6.9,8.2,4.6,14.62,10.9,19.28,18.9,4.65,8,6.97,16.9,6.97,26.7s-2.33,18.7-6.97,26.7c-4.65,8-11.08,14.3-19.28,18.9-8.2,4.6-17.35,6.9-27.45,6.9H1.65v-105ZM58.88,203.17c5.05-2.85,8.97-6.83,11.77-11.92,2.8-5.1,4.2-10.85,4.2-17.25s-1.4-12.15-4.2-17.25c-2.8-5.1-6.73-9.08-11.77-11.92-5.05-2.85-10.83-4.28-17.33-4.28h-18.45v66.9h18.45c6.5,0,12.27-1.42,17.33-4.28Z"/>
      <path class="eloi-b" d="M110.25,121.5h69.9v19.05h-48.45v24h46.95v18.9h-46.95v24h48.45v19.05h-69.9v-105Z"/>
      <path class="eloi-b" d="M220.42,205.58c3.35,2.65,7.92,3.97,13.72,3.97,3.4,0,6.42-.55,9.08-1.65,2.65-1.1,4.7-2.57,6.15-4.43,1.45-1.85,2.17-3.92,2.17-6.22,0-2.7-.93-4.9-2.78-6.6-1.85-1.7-4.18-3.08-6.97-4.12-2.8-1.05-6.7-2.22-11.7-3.53-7.3-1.9-13.33-3.83-18.08-5.78-4.75-1.95-8.83-5.02-12.22-9.22-3.4-4.2-5.1-9.85-5.1-16.95,0-5.8,1.7-11.07,5.1-15.83,3.4-4.75,8.05-8.47,13.95-11.17,5.9-2.7,12.4-4.05,19.5-4.05s13.65,1.25,19.35,3.75c5.7,2.5,10.28,5.95,13.72,10.35,3.45,4.4,5.57,9.45,6.38,15.15l-21.6,4.35c-.8-4.6-2.83-8.27-6.08-11.02-3.25-2.75-7.42-4.12-12.52-4.12-3.1,0-5.83.5-8.18,1.5-2.35,1-4.18,2.35-5.47,4.05-1.3,1.7-1.95,3.65-1.95,5.85,0,2.5.87,4.55,2.62,6.15,1.75,1.6,3.98,2.88,6.67,3.83,2.7.95,6.45,2.08,11.25,3.38,7.5,1.9,13.65,3.88,18.45,5.92,4.8,2.05,8.95,5.28,12.45,9.67,3.5,4.4,5.25,10.35,5.25,17.85,0,5.9-1.75,11.23-5.25,15.97-3.5,4.75-8.3,8.5-14.4,11.25-6.1,2.75-12.9,4.12-20.4,4.12-11.3,0-20.65-2.65-28.05-7.95-7.4-5.3-11.8-12.4-13.2-21.3l21.6-4.35c1,4.8,3.17,8.53,6.53,11.17Z"/>
      <path class="eloi-b" d="M288.3,121.5h21.45v105h-21.45v-105Z"/>
      <path class="eloi-b" d="M330.3,146.62c4.9-8.25,11.55-14.75,19.95-19.5,8.4-4.75,17.7-7.12,27.9-7.12,7.8,0,14.97,1.4,21.53,4.2,6.55,2.8,12.15,6.5,16.8,11.1,4.65,4.6,8.22,9.65,10.72,15.15l-19.8,7.65c-2.6-5.4-6.5-9.82-11.7-13.27-5.2-3.45-11.05-5.17-17.55-5.17-6.1,0-11.68,1.53-16.72,4.57-5.05,3.05-9.03,7.18-11.92,12.38-2.9,5.2-4.35,11-4.35,17.4s1.45,12.2,4.35,17.4c2.9,5.2,6.87,9.33,11.92,12.38,5.05,3.05,10.62,4.57,16.72,4.57s11.35-1.3,16.05-3.9c4.7-2.6,8.33-5.92,10.88-9.98,2.55-4.05,3.77-8.22,3.68-12.52l3.6,4.5h-42.9v-19.05h62.55c1.1,11.8-.73,22.3-5.48,31.5-4.75,9.2-11.47,16.35-20.17,21.45-8.7,5.1-18.1,7.65-28.2,7.65s-19.5-2.37-27.9-7.12c-8.4-4.75-15.05-11.25-19.95-19.5-4.9-8.25-7.35-17.37-7.35-27.38s2.45-19.12,7.35-27.38Z"/>
      <path class="eloi-b" d="M445.5,121.5h20.85l71.4,96-19.8,6v-102h21.45v105h-20.85l-71.55-96,19.95-6v102h-21.45v-105Z"/>
      <path class="eloi-b" d="M28.12,325.58c3.35,2.65,7.92,3.97,13.72,3.97,3.4,0,6.42-.55,9.08-1.65,2.65-1.1,4.7-2.57,6.15-4.43,1.45-1.85,2.17-3.92,2.17-6.22,0-2.7-.93-4.9-2.78-6.6-1.85-1.7-4.18-3.08-6.97-4.12-2.8-1.05-6.7-2.22-11.7-3.53-7.3-1.9-13.33-3.83-18.08-5.78-4.75-1.95-8.83-5.02-12.22-9.22-3.4-4.2-5.1-9.85-5.1-16.95,0-5.8,1.7-11.07,5.1-15.83,3.4-4.75,8.05-8.47,13.95-11.17,5.9-2.7,12.4-4.05,19.5-4.05s13.65,1.25,19.35,3.75c5.7,2.5,10.28,5.95,13.72,10.35,3.45,4.4,5.57,9.45,6.38,15.15l-21.6,4.35c-.8-4.6-2.83-8.27-6.08-11.02-3.25-2.75-7.42-4.12-12.52-4.12-3.1,0-5.83.5-8.18,1.5-2.35,1-4.18,2.35-5.47,4.05-1.3,1.7-1.95,3.65-1.95,5.85,0,2.5.87,4.55,2.62,6.15,1.75,1.6,3.98,2.88,6.67,3.83,2.7.95,6.45,2.08,11.25,3.38,7.5,1.9,13.65,3.88,18.45,5.92,4.8,2.05,8.95,5.28,12.45,9.67,3.5,4.4,5.25,10.35,5.25,17.85,0,5.9-1.75,11.23-5.25,15.97-3.5,4.75-8.3,8.5-14.4,11.25-6.1,2.75-12.9,4.12-20.4,4.12-11.3,0-20.65-2.65-28.05-7.95-7.4-5.3-11.8-12.4-13.2-21.3l21.6-4.35c1,4.8,3.17,8.53,6.53,11.17Z"/>
      <path class="eloi-b" d="M119.4,260.55h-32.1v-19.05h85.8v19.05h-32.25v85.95h-21.45v-85.95Z"/>
      <path class="eloi-b" d="M202.65,241.5v63.75c0,4.4.98,8.35,2.92,11.85,1.95,3.5,4.75,6.25,8.4,8.25,3.65,2,7.88,3,12.67,3s9-1,12.6-3c3.6-2,6.4-4.75,8.4-8.25,2-3.5,3-7.45,3-11.85v-63.75h21.45v63.75c0,8.2-1.95,15.55-5.85,22.05-3.9,6.5-9.3,11.58-16.2,15.23-6.9,3.65-14.7,5.47-23.4,5.47s-16.5-1.82-23.4-5.47c-6.9-3.65-12.3-8.72-16.2-15.23-3.9-6.5-5.85-13.85-5.85-22.05v-63.75h21.45Z"/>
      <path class="eloi-b" d="M286.8,241.5h41.7c10.1,0,19.25,2.3,27.45,6.9,8.2,4.6,14.62,10.9,19.28,18.9,4.65,8,6.97,16.9,6.97,26.7s-2.33,18.7-6.97,26.7c-4.65,8-11.08,14.3-19.28,18.9-8.2,4.6-17.35,6.9-27.45,6.9h-41.7v-105ZM344.02,323.17c5.05-2.85,8.97-6.83,11.77-11.92,2.8-5.1,4.2-10.85,4.2-17.25s-1.4-12.15-4.2-17.25c-2.8-5.1-6.73-9.08-11.77-11.92-5.05-2.85-10.83-4.28-17.33-4.28h-18.45v66.9h18.45c6.5,0,12.27-1.42,17.33-4.28Z"/>
      <path class="eloi-b" d="M395.4,241.5h21.45v105h-21.45v-105Z"/>
      <path class="eloi-b" d="M437.32,266.62c4.85-8.25,11.5-14.75,19.95-19.5,8.45-4.75,17.77-7.12,27.97-7.12s19.52,2.38,27.98,7.12c8.45,4.75,15.1,11.25,19.95,19.5,4.85,8.25,7.28,17.38,7.28,27.38s-2.43,19.12-7.28,27.38c-4.85,8.25-11.5,14.75-19.95,19.5-8.45,4.75-17.78,7.12-27.98,7.12s-19.53-2.37-27.97-7.12c-8.45-4.75-15.1-11.25-19.95-19.5-4.85-8.25-7.28-17.37-7.28-27.38s2.42-19.12,7.28-27.38ZM456.6,311.4c2.9,5.2,6.85,9.33,11.85,12.38,5,3.05,10.6,4.57,16.8,4.57s11.67-1.52,16.73-4.57c5.05-3.05,9.02-7.17,11.92-12.38,2.9-5.2,4.35-11,4.35-17.4s-1.45-12.2-4.35-17.4c-2.9-5.2-6.85-9.32-11.85-12.38-5-3.05-10.6-4.57-16.8-4.57s-11.68,1.53-16.72,4.57c-5.05,3.05-9.03,7.18-11.92,12.38-2.9,5.2-4.35,11-4.35,17.4s1.45,12.2,4.35,17.4Z"/>
    </g>
  </g>
</svg>