<?xml version="1.0" encoding="UTF-8"?>
<svg id="Camada_2" data-name="Camada 2" xmlns="http://www.w3.org/2000/svg" viewBox="0 0 734.87 300">
  <defs>
    <style>
      .cls-1 {
        fill: #272126;
      }
    </style>
  </defs>
  <g id="Camada_1-2" data-name="Camada 1">
    <g>
      <g>
        <g>
          <path class="cls-1" d="M359.81,85.59v25.06c-5.08,15.13-15.61,23.05-32.28,23.05-22.23,0-32.04-17.73-32.04-41.85s9.1-41.85,31.33-41.85c11.7,0,17.02,3.43,20.69,6.15l.95-.12-.47-4.38,2.72-.35s0,3.67.95,10.05c.83,5.56,2.13,10.76,2.13,10.76l-2.72.24c-2.84-11.7-12.3-19.63-24.24-19.63-15.49,0-22.11,15.02-22.11,39.13s7.33,39.02,22.82,39.02c14.31,0,23.17-8.75,23.17-24.71v-16.91h-12.3v-2.72c9.46,0,15.84-.95,15.84-.95h5.56Z"/>
          <path class="cls-1" d="M417.04,112.31s-2.13,5.2-3.9,10.88c-1.77,5.56-2.6,9.93-2.6,9.93,0,0-8.99-.47-24.36-.47s-22.7.47-22.7.47v-2.84c4.61,0,8.39.47,8.39-7.92v-61.12c0-8.39-3.78-8.04-8.39-8.04v-2.72s7.33.59,18.8.59c12.3,0,24.83-.59,24.83-.59,0,0,.95,2.36,3.43,6.03,2.01,3.07,5.32,7.33,5.32,7.33l-2.48,1.18c-5.32-8.04-11.47-11.23-22.11-11.23h-10.17v32.75h11.35c6.15,0,7.92-4.02,10.64-10.4l2.48,1.18s-2.25,4.73-5.2,11.7c-2.48,6.03-4.37,11.94-4.37,11.94l-2.48-1.18s.95-2.36,2.13-5.32c1.42-3.9.71-5.2-4.02-5.2h-10.52v40.55h10.17c14.9,0,18.8-4.37,23.06-18.09l2.72.59Z"/>
          <path class="cls-1" d="M488.93,91.85c0,24.12-10.05,41.85-32.4,41.85s-32.04-17.73-32.04-41.85,9.81-41.85,32.04-41.85,32.4,17.62,32.4,41.85ZM479.71,91.85c0-24.12-7.57-39.13-23.17-39.13s-22.82,15.02-22.82,39.13,7.33,39.02,22.82,39.02,23.17-14.9,23.17-39.02Z"/>
          <path class="cls-1" d="M556.68,128.98c-2.84,2.48-5.56,4.73-10.88,4.73-7.68,0-9.69-8.28-14.42-22.35-6.15-18.21-8.87-22.11-20.93-22.11v33.46c0,7.92,3.78,7.57,8.39,7.57v2.84s-4.49-.59-13.36-.59-12.65.59-12.65.59v-2.84c4.61,0,8.39.24,8.39-7.57v-61.83c0-7.92-3.78-7.68-8.39-7.68v-2.72s6.27.59,12.77.59c8.75,0,13.95-1.06,21.16-1.06,11.59,0,15.96,8.51,15.96,19.51,0,12.3-8.87,17.62-19.51,17.62v.95c8.63,1.66,13,8.28,16.67,19.63,3.78,11.47,6.38,20.93,12.42,20.93,2.13,0,3.55-1.3,3.55-1.3l.83,1.66ZM516.36,86.53c8.16,0,17.14-3.9,17.14-16.43v-1.06c0-11.94-6.5-15.13-16.32-15.13h-6.74v32.63h5.91Z"/>
          <path class="cls-1" d="M621.71,85.59v25.06c-5.08,15.13-15.61,23.05-32.28,23.05-22.23,0-32.04-17.73-32.04-41.85s9.1-41.85,31.33-41.85c11.7,0,17.02,3.43,20.69,6.15l.95-.12-.47-4.38,2.72-.35s0,3.67.95,10.05c.83,5.56,2.13,10.76,2.13,10.76l-2.72.24c-2.84-11.7-12.3-19.63-24.24-19.63-15.49,0-22.11,15.02-22.11,39.13s7.33,39.02,22.82,39.02c14.31,0,23.17-8.75,23.17-24.71v-16.91h-12.3v-2.72c9.46,0,15.84-.95,15.84-.95h5.56Z"/>
          <path class="cls-1" d="M643,122.71c0,7.92,3.78,7.57,8.39,7.57v2.84s-4.14-.59-13.01-.59-13.01.59-13.01.59v-2.84c4.61,0,8.39.35,8.39-7.57v-61.83c0-7.92-3.78-7.68-8.39-7.68v-2.72s4.14.59,13.01.59,13.01-.59,13.01-.59v2.72c-4.61,0-8.39-.24-8.39,7.68v61.83Z"/>
          <path class="cls-1" d="M719.61,130.28v2.84s-3.43-.59-12.89-.59c-8.16,0-13.95.59-13.95.59v-2.84c5.44,0,10.05-1.77,7.57-11.59l-7.21-29.44h-17.02l-6.74,27.43c-2.25,9.1,1.3,13.6,8.16,13.6v2.84s-5.32-.59-11.47-.59-11.35.59-11.35.59v-2.84c7.57,0,9.69-5.2,11.59-12.77l13.36-54.15c2.13-8.39-.12-10.17-8.51-10.17v-2.72h5.44c4.02,0,10.4-.47,10.4-.47h5.79l17.38,69.99c2.13,8.51,5.56,10.29,9.46,10.29ZM692.42,86.53l-7.45-29.44h-.95l-7.21,29.44h15.61Z"/>
        </g>
        <g>
          <path class="cls-1" d="M360.41,246.57v2.84s-3.43-.59-12.89-.59c-8.16,0-13.95.59-13.95.59v-2.84c5.44,0,10.05-1.77,7.57-11.59l-7.21-29.44h-17.02l-6.74,27.43c-2.25,9.1,1.3,13.6,8.16,13.6v2.84s-5.32-.59-11.47-.59-11.35.59-11.35.59v-2.84c7.57,0,9.69-5.2,11.59-12.77l13.36-54.15c2.13-8.39-.12-10.17-8.51-10.17v-2.72h5.44c4.02,0,10.4-.47,10.4-.47h5.79l17.38,69.99c2.13,8.51,5.56,10.29,9.46,10.29ZM333.21,202.83l-7.45-29.44h-.95l-7.21,29.44h15.61Z"/>
          <path class="cls-1" d="M426.97,166.77v2.72c-4.61,0-8.39-.24-8.39,7.68v72.24h-8.28l-33.7-70.94h-.95v60.53c0,7.92,3.67,7.57,8.39,7.57v2.84s-4.49-.59-9.93-.59-9.7.59-9.7.59v-2.84c4.61,0,8.39.35,8.39-7.57v-61.83c0-7.92-3.78-7.68-8.39-7.68v-2.72s4.14.59,8.28.59,8.39-.59,8.39-.59c32.39,68.1,33.81,70.94,33.81,70.94h.95v-60.53c0-7.92-3.67-7.68-8.28-7.68v-2.72s4.26.59,9.7.59,9.69-.59,9.69-.59Z"/>
          <path class="cls-1" d="M484.44,199.52v17.26c0,17.73-3.67,33.22-17.73,33.22-6.15,0-14.07-1.18-22.34-1.18-8.87,0-13.6.59-13.6.59v-2.84c4.61,0,8.39.35,8.39-8.04v-60.89c0-8.39-3.78-8.16-8.39-8.16v-2.72s4.73.59,13.6.59c8.28,0,16.2-1.06,22.34-1.06,14.07,0,17.73,15.37,17.73,33.22ZM475.22,198.93c0-19.98-2.96-28.85-17.38-28.85h-9.46v76.02h9.46c14.42,0,17.38-8.87,17.38-28.85v-18.33Z"/>
          <path class="cls-1" d="M551.83,245.27c-2.84,2.48-5.56,4.73-10.88,4.73-7.68,0-9.69-8.28-14.42-22.35-6.15-18.21-8.87-22.11-20.93-22.11v33.46c0,7.92,3.78,7.57,8.39,7.57v2.84s-4.49-.59-13.36-.59-12.65.59-12.65.59v-2.84c4.61,0,8.39.24,8.39-7.57v-61.83c0-7.92-3.78-7.68-8.39-7.68v-2.72s6.27.59,12.77.59c8.75,0,13.95-1.06,21.16-1.06,11.59,0,15.96,8.51,15.96,19.51,0,12.3-8.87,17.62-19.51,17.62v.95c8.63,1.66,13,8.28,16.67,19.63,3.78,11.47,6.38,20.93,12.42,20.93,2.13,0,3.55-1.3,3.55-1.3l.83,1.66ZM511.52,202.83c8.16,0,17.14-3.9,17.14-16.43v-1.06c0-11.94-6.5-15.13-16.32-15.13h-6.74v32.63h5.91Z"/>
          <path class="cls-1" d="M620.05,246.57v2.84s-3.43-.59-12.89-.59c-8.16,0-13.95.59-13.95.59v-2.84c5.44,0,10.05-1.77,7.57-11.59l-7.21-29.44h-17.02l-6.74,27.43c-2.25,9.1,1.3,13.6,8.16,13.6v2.84s-5.32-.59-11.47-.59-11.35.59-11.35.59v-2.84c7.57,0,9.69-5.2,11.59-12.77l13.36-54.15c2.13-8.39-.12-10.17-8.51-10.17v-2.72h5.44c4.02,0,10.4-.47,10.4-.47h5.79l17.38,69.99c2.13,8.51,5.56,10.29,9.46,10.29ZM592.86,202.83l-7.45-29.44h-.95l-7.21,29.44h15.61Z"/>
          <path class="cls-1" d="M677.76,199.52v17.26c0,17.73-3.67,33.22-17.73,33.22-6.15,0-14.07-1.18-22.34-1.18-8.87,0-13.6.59-13.6.59v-2.84c4.61,0,8.39.35,8.39-8.04v-60.89c0-8.39-3.78-8.16-8.39-8.16v-2.72s4.73.59,13.6.59c8.28,0,16.2-1.06,22.34-1.06,14.07,0,17.73,15.37,17.73,33.22ZM668.53,198.93c0-19.98-2.96-28.85-17.38-28.85h-9.46v76.02h9.46c14.42,0,17.38-8.87,17.38-28.85v-18.33Z"/>
          <path class="cls-1" d="M734.87,228.6s-2.13,5.2-3.9,10.88c-1.77,5.56-2.6,9.93-2.6,9.93,0,0-8.99-.47-24.36-.47s-22.7.47-22.7.47v-2.84c4.61,0,8.39.47,8.39-7.92v-61.12c0-8.39-3.78-8.04-8.39-8.04v-2.72s7.33.59,18.8.59c12.3,0,24.83-.59,24.83-.59,0,0,.95,2.36,3.43,6.03,2.01,3.07,5.32,7.33,5.32,7.33l-2.48,1.18c-5.32-8.04-11.47-11.23-22.11-11.23h-10.17v32.75h11.35c6.15,0,7.92-4.02,10.64-10.4l2.48,1.18s-2.25,4.73-5.2,11.7c-2.48,6.03-4.37,11.94-4.37,11.94l-2.48-1.18s.95-2.36,2.13-5.32c1.42-3.9.71-5.2-4.02-5.2h-10.52v40.55h10.17c14.9,0,18.8-4.37,23.06-18.09l2.72.59Z"/>
        </g>
      </g>
      <path class="cls-1" d="M212,81.6c-2.76-21.02-12.4-41.29-27.94-55.83C153.36-3.96,105.46-7.29,68.4,12.29,37.45,28.55,14.06,59.44,9.01,94.35c-1.95,14.48-3.17,36.33-4.55,51.05-.17,3.58-4.88,55.57-4.39,57.44-.26,3.94.18,9.24.54,13.24.06,1.92.7,4.63,1.01,6.56,8.2,46.26,47.61,77.45,94.19,77.36,53.51-.43,101.32-42.43,108.54-95.42,1.79-14.45,2.82-36.31,4.11-51,.12-3.44,4.58-55.67,4.12-57.35.39-4.47-.37-10.12-.58-14.63ZM71.14,17.46c22.18-12.08,48.87-15.43,72.86-8.98-3.52-.08-7.11.15-10.76.71-32.14,4.93-60.08,30.29-73.88,44.97-18.97,20.18-34.3,43.01-45.65,67.86.67-9.54,1.41-19.16,2.35-26.63,4.35-32.79,26.14-62.29,55.07-77.92ZM95.81,293.23c-15.42-.28-30.61-3.98-44.06-11.53-1.78-1-5.97-3.79-7.73-4.92-.14-.1-.28-.22-.42-.33,1.66.56,3.34,1.08,5.06,1.51,6.1,1.51,12.29,2.26,18.48,2.26,12.87,0,25.78-3.25,38.09-9.66,17.01-8.87,32.76-23.24,46.8-42.72,14.15-19.64,25.01-41.09,32.27-63.77l19.33-3.93c-1.12,13.94-2.27,31.64-3.94,43.74-7.37,50.1-53.24,89.6-103.87,89.34ZM180.54,160.03l-52.01,9.73-19.16,2.88c-1.92.29-4.09.23-6.27-.18-1.15-.22-2.11-.82-2.69-1.71-.59-.9-.77-2.04-.5-3.21.53-2.34,1.71-4.65,3.59-7.07,9.62-12.36,20.78-23.05,35.11-33.64,10.33-7.63,21.5-13.73,29.89-16.31,1.89-.58,4.91-1.33,7.96-1.33,4.06,0,8.16,1.32,9.72,6.1.99,3.04,1.25,6.11,1.33,9.75-.39,8.95-1.66,16.95-3.87,24.46l-3.1,10.55ZM208.43,96.14c.37,1.45-3.98,53.87-4.23,57.11-.09,1.02-.18,2.08-.28,3.16-5.79.75-11.73,1.62-17.94,2.64,1.91-7.22,3.97-15.72,5.15-24.69l.66-9.7c-.17-3.44-.49-7.11-1.66-10.69-1.81-5.55-6.4-9.09-12.29-9.47-12.42-.82-28.5,9.2-34.86,13.55-13.66,9.32-26.23,20.53-37.38,33.32-4.21,4.83-9.82,11.89-9.82,17.37,0,2.26.76,4.12,2.27,5.53,3.09,2.89,8.26,2.99,11.09,2.8,5.94-.41,13.03-1.02,20.64-2.49l48.98-9.44v.02c-7.06,20.17-18.81,41.67-33.07,60.55-7.44,9.85-15.46,18.37-24.49,26.07-7.92,6.74-15.91,11.8-24.44,15.48-12.85,5.54-27.66,7.98-41.69,5.7-17.16-2.79-31.63-14.36-38.99-30.11-3.2-6.84-5.49-14.1-6.71-21.59-.19-1.25-.61-3.19-.8-4.51-.22-4.22-.95-9.53-.55-13.74-.15-.65.98-16.67,2.08-31.65,1.61-22,7.53-43.55,18.05-62.93,12.06-22.21,27.82-42.9,46.27-60.44,17.32-16.47,35.47-27.56,52.5-32.07,16.42-4.35,31.03-2.95,42.55,3.99,4.03,2.68,7.86,5.74,11.44,9.19,14.89,13.77,24.13,33.01,26.89,53.03.25,4.3,1.02,9.72.63,14.01Z"/>
    </g>
  </g>
</svg>